<svg xmlns="http://www.w3.org/2000/svg" viewBox="0 0 330 162" width="330" height="162">
	<style>
		tspan { white-space:pre }
	</style>
	<path id="reviews " fill="#ffffff" d="M60.4 75.4L60.4 78L59.4 79.8L56.6 81.8L53.2 82.2L49.6 85L48.8 87.6L46 90.6L44.6 94.2L43.6 98.4L40.4 106.2L37.6 114L35.8 120.2L34.4 122.8L32.2 123.4L30.2 125.2L27.8 124.8L25.6 122.8L26.2 103.4L26.8 99.2L26.8 88.6L25.6 85L25.6 82.6L24.6 79.4L24.6 78.2L27 76.6L28 76.6L30.6 78.8L32.2 82.6L32.8 88.2L33.4 91L33.4 103L33.8 103.4L35.8 99.8L36.6 96.4L39 92L39.8 91.4L40 87.6L41.6 84L45 78.8L48.2 76L52 74.2L59.4 74.4L59.2 74.8L60.4 75.4ZM112.4 119.2L112.4 120.8L107.6 124.2L101.6 126.2L99.2 127.8L88.2 127.8L82.6 126L77 122L68.8 113.2L63.6 100.2L61 84L61.8 80.2L62.4 76L65.6 70.4L69.2 67.4L76.2 64.4L78.2 63.8L85.4 63.8L86.4 64.6L88.6 64.4L90 65.6L90.6 65.6L95.6 71.4L97 75L97.4 77.6L98 81L98 93.6L96.4 97L94.6 97.8L89.6 97.4L82.6 97L76.2 96L73.4 96L70.6 95.4L70.2 95.4L70.2 98.6L73 107.4L74.8 110.8L79.8 115.8L79.8 116.4L83.6 119L85 120.8L91.4 123.2L99.8 122.4L104 121L106.2 120L110 119.6L111.2 119L112.4 119.2ZM90.6 88L91.8 84.8L90.6 77.4L88.8 73.8L85 71L80.4 70.6L76.4 71.6L72.4 75L69.4 79.4L69.2 86.6L69.8 86.6L71.6 86.8L80.4 88.2L88.6 89L90.6 88ZM144.6 70L144.6 79L144 82.6L143.6 89.6L142.4 93.6L142.4 100.2L140.4 108L140.4 110.8L139.4 113L139 118.2L138 120.2L135.2 123.8L134.2 124.8L131.4 124.8L129.6 122.4L128.4 122L127 118.2L124.8 115.4L124.6 113.6L122.8 111.4L117.2 96.4L113 84L112 82L109.8 80.4L109.8 77L110.2 75L111.2 73.8L115 74.4L117.6 75.2L117.6 76.2L119 78L119.2 80.8L120.4 83L122 92L122.8 93.2L124.2 97.4L124.6 99.2L125.6 101L126.6 104.8L128.4 107.6L131.4 111.2L133 109.4L134.8 99.6L136.2 94.2L136.2 91.8L136.8 90L136.8 86.6L137.6 84.8L138.4 80.4L139 72.4L139.6 70L141.4 68.4L143.2 68.4L144.6 70ZM159.6 37.8L162 40.4L161.8 41.8L160.2 42.6L152.2 41.4L149.4 40L147.2 36.8L147.2 34.8L148.6 32.2L150.4 31.2L154.6 31.6L157.4 33.8L159.6 37.8ZM165.2 117.6L166 122.4L165.6 129.2L162.4 129.2L160.8 127.4L160.8 126.4L159.6 125.4L159.6 123.8L158.6 122.4L158.6 110.6L157.8 109.4L158.6 108.4L158.2 94.2L157.4 85.8L157.4 84L156.4 80.6L156.8 77.8L159 75.6L162.4 76.4L164.2 77.8L164.8 78.4L164.8 88.6L165.6 89.6L164.8 91.4L164.8 107.2L165.2 117.6ZM221.6 119.2L221.6 120.8L216.8 124.2L210.8 126.2L208.4 127.8L197.4 127.8L191.8 126L186.2 122L178 113.2L172.8 100.2L170.2 84L171 80.2L171.6 76L174.8 70.4L178.4 67.4L185.4 64.4L187.4 63.8L194.6 63.8L195.6 64.6L197.8 64.4L199.2 65.6L199.8 65.6L204.8 71.4L206.2 75L206.6 77.6L207.2 81L207.2 93.6L205.6 97L203.8 97.8L198.8 97.4L191.8 97L185.4 96L182.6 96L179.8 95.4L179.4 95.4L179.4 98.6L182.2 107.4L184 110.8L189 115.8L189 116.4L192.8 119L194.2 120.8L200.6 123.2L209 122.4L213.2 121L215.4 120L219.2 119.6L220.4 119L221.6 119.2ZM199.8 88L201 84.8L199.8 77.4L198 73.8L194.2 71L189.6 70.6L185.6 71.6L181.6 75L178.6 79.4L178.4 86.6L179 86.6L180.8 86.8L189.6 88.2L197.8 89L199.8 88ZM275.2 92L276 99.4L275 106.2L274 110.2L273.2 114.6L270 123.4L268.2 124.4L267.2 126.2L265.8 127.6L263.6 127.2L256.6 119.6L251.8 111L248.2 102.6L246.4 96.2L244.6 94.4L243 96.2L241.4 99.6L235.2 111L234.8 112.8L230.2 117.4L226 116L224.2 113.4L223.8 110.2L219.6 97.4L218.8 92L216.8 79.8L215.8 76.8L214.4 75L213.6 72.2L216 69.8L219.2 69.4L221.4 69.8L223.6 72L224.6 76.6L224.8 90.6L227.6 101.2L228.8 103.6L228.8 104L229.4 104.6L231.6 102.6L233.4 98.6L234.4 98L236.4 93L238.6 89.8L239.8 85.6L240 81.8L243.6 79.8L246.8 80.4L248.8 81.8L251 84.2L251.8 88.6L254.6 99.4L255.2 102.6L256.2 104L257 107.4L260.8 115.2L263.4 117.4L265 114.6L265.4 112L267.2 109L268.2 103L269.4 99.2L269.4 92L270 87.8L270.6 77.6L270 75.8L271.8 74L274.2 74.4L276 76.8L276 90.4L275.2 92ZM309.6 58.6L313.2 63.6L312.6 66L312.2 67L310 68.2L306.4 67L305 66L301.8 66.8L297.6 68.8L295 70.6L291.6 73.4L288 78.4L286.2 82.4L287 91.6L292 102L298 110.8L302.8 120.6L302.8 127L299.4 131.2L294 133.4L287.4 133L285.6 132L285.2 130.8L285.2 129.4L286.2 128.4L291.6 127.6L293.8 126.6L295.8 124.2L295.6 119.8L293.8 117.6L293 115.4L290.2 109.8L286.8 105.4L282.4 97.8L281 94.2L279.6 91.4L279.2 87.8L278.6 82.8L278.2 82.6L277.4 82.6L278.2 78.8L280 75.6L280.4 75.8L287.8 68.2L287.8 67.4L291.6 64.6L295.6 61.4L302.2 58.2L305.6 57.2L309.6 58.6Z" />
</svg>